P3
# Created by IrfanView
8 8
255
231
172
63
214
133
80
214
133
80
231
172
63
222
147
71
222
147
71
214
133
80
231
172
63
231
172
63
255
255
255
92
35
72
214
133
80
231
172
63
231
172
63
214
133
80
214
133
80
208
122
85
92
35
72
92
35
72
231
172
63
231
172
63
92
35
72
92
35
72
222
147
71
208
122
85
231
172
63
231
172
63
214
133
80
214
133
80
92
35
72
255
255
255
222
147
71
222
147
71
255
255
255
92
35
72
255
255
255
222
147
71
222
147
71
222
147
71
222
147
71
222
147
71
255
255
255
92
35
72
92
35
72
255
255
255
92
35
72
255
127
39
208
122
85
222
147
71
92
35
72
255
255
255
237
28
36
237
28
36
92
35
72
255
127
39
208
122
85
222
147
71
222
147
71
222
147
71
255
255
255
92
35
72
255
255
255
222
147
71
222
147
71
